<svg width="10" height="10" viewBox="0 0 10 10" fill="none" xmlns="http://www.w3.org/2000/svg">
<path d="M8.33333 0.833374H3.33333C2.87375 0.833374 2.5 1.20712 2.5 1.66671V6.66671C2.5 7.12629 2.87375 7.50004 3.33333 7.50004H8.33333C8.79292 7.50004 9.16667 7.12629 9.16667 6.66671V1.66671C9.16667 1.20712 8.79292 0.833374 8.33333 0.833374ZM3.33333 6.66671V1.66671H8.33333L8.33417 6.66671H3.33333Z" fill="#1F1D36"/>
<path d="M1.66665 3.33333H0.833313V8.33333C0.833313 8.79292 1.20706 9.16667 1.66665 9.16667H6.66665V8.33333H1.66665V3.33333ZM6.24998 2.5H5.41665V3.75H4.16665V4.58333H5.41665V5.83333H6.24998V4.58333H7.49998V3.75H6.24998V2.5Z" fill="#1F1D36"/>
</svg>
