<svg width="108" height="17" viewBox="0 0 108 17" fill="none" xmlns="http://www.w3.org/2000/svg">
<path d="M17.3326 7.71019C17.5323 7.5614 17.6805 7.35384 17.7563 7.1166C17.8321 6.87936 17.8318 6.62435 17.7553 6.38732C17.6789 6.15029 17.5302 5.94312 17.33 5.79487C17.1299 5.64662 16.8884 5.56472 16.6394 5.56065L11.8029 5.37794C11.7792 5.3763 11.7564 5.36782 11.7373 5.35352C11.7182 5.33922 11.7037 5.31971 11.6955 5.29734L10.0242 0.783318C9.94024 0.553661 9.78773 0.355355 9.58732 0.215248C9.38691 0.0751404 9.14829 0 8.90377 0C8.65924 0 8.42062 0.0751404 8.22021 0.215248C8.0198 0.355355 7.86729 0.553661 7.78332 0.783318L6.11743 5.31346C6.1092 5.33583 6.09467 5.35534 6.0756 5.36964C6.05654 5.38394 6.03374 5.39242 6.00996 5.39407L1.17351 5.57678C0.924489 5.58084 0.682985 5.66274 0.482861 5.81099C0.282736 5.95924 0.134027 6.16641 0.0575844 6.40344C-0.0188584 6.64047 -0.0192014 6.89548 0.0566036 7.13272C0.132409 7.36996 0.28056 7.57752 0.480285 7.72631L4.27421 10.7088C4.2932 10.7237 4.30739 10.7439 4.31503 10.7668C4.32267 10.7898 4.32343 10.8144 4.3172 10.8378L3.01136 15.4646C2.94369 15.7002 2.95025 15.951 3.03013 16.1827C3.11002 16.4145 3.25936 16.616 3.45784 16.7599C3.65632 16.9037 3.8943 16.983 4.13941 16.9868C4.38452 16.9906 4.62485 16.9188 4.82771 16.7812L8.83659 14.0943C8.85634 14.0807 8.87977 14.0734 8.90377 14.0734C8.92776 14.0734 8.95119 14.0807 8.97094 14.0943L12.9798 16.7812C13.1799 16.9235 13.4194 17 13.665 17C13.9105 17 14.15 16.9235 14.3501 16.7812C14.5487 16.6387 14.6982 16.4382 14.778 16.2072C14.8579 15.9762 14.8642 15.7262 14.7962 15.4915L13.4796 10.8485C13.4726 10.8252 13.473 10.8003 13.4807 10.7772C13.4884 10.7541 13.503 10.734 13.5226 10.7195L17.3326 7.71019Z" fill="#3D3B54"/>
<path d="M35.3326 7.71019C35.5323 7.5614 35.6805 7.35384 35.7563 7.1166C35.8321 6.87936 35.8318 6.62435 35.7553 6.38732C35.6789 6.15029 35.5302 5.94312 35.33 5.79487C35.1299 5.64662 34.8884 5.56472 34.6394 5.56065L29.8029 5.37794C29.7792 5.3763 29.7564 5.36782 29.7373 5.35352C29.7182 5.33922 29.7037 5.31971 29.6955 5.29734L28.0242 0.783318C27.9402 0.553661 27.7877 0.355355 27.5873 0.215248C27.3869 0.0751404 27.1483 0 26.9038 0C26.6592 0 26.4206 0.0751404 26.2202 0.215248C26.0198 0.355355 25.8673 0.553661 25.7833 0.783318L24.1174 5.31346C24.1092 5.33583 24.0947 5.35534 24.0756 5.36964C24.0565 5.38394 24.0337 5.39242 24.01 5.39407L19.1735 5.57678C18.9245 5.58084 18.683 5.66274 18.4829 5.81099C18.2827 5.95924 18.134 6.16641 18.0576 6.40344C17.9811 6.64047 17.9808 6.89548 18.0566 7.13272C18.1324 7.36996 18.2806 7.57752 18.4803 7.72631L22.2742 10.7088C22.2932 10.7237 22.3074 10.7439 22.315 10.7668C22.3227 10.7898 22.3234 10.8144 22.3172 10.8378L21.0114 15.4646C20.9437 15.7002 20.9502 15.951 21.0301 16.1827C21.11 16.4145 21.2594 16.616 21.4578 16.7599C21.6563 16.9037 21.8943 16.983 22.1394 16.9868C22.3845 16.9906 22.6248 16.9188 22.8277 16.7812L26.8366 14.0943C26.8563 14.0807 26.8798 14.0734 26.9038 14.0734C26.9278 14.0734 26.9512 14.0807 26.9709 14.0943L30.9798 16.7812C31.1799 16.9235 31.4194 17 31.665 17C31.9105 17 32.15 16.9235 32.3501 16.7812C32.5487 16.6387 32.6982 16.4382 32.778 16.2072C32.8579 15.9762 32.8642 15.7262 32.7962 15.4915L31.4796 10.8485C31.4726 10.8252 31.473 10.8003 31.4807 10.7772C31.4884 10.7541 31.503 10.734 31.5226 10.7195L35.3326 7.71019Z" fill="#3D3B54"/>
<path d="M53.3326 7.71019C53.5323 7.5614 53.6805 7.35384 53.7563 7.1166C53.8321 6.87936 53.8318 6.62435 53.7553 6.38732C53.6789 6.15029 53.5302 5.94312 53.33 5.79487C53.1299 5.64662 52.8884 5.56472 52.6394 5.56065L47.8029 5.37794C47.7792 5.3763 47.7564 5.36782 47.7373 5.35352C47.7182 5.33922 47.7037 5.31971 47.6955 5.29734L46.0242 0.783318C45.9402 0.553661 45.7877 0.355355 45.5873 0.215248C45.3869 0.0751404 45.1483 0 44.9038 0C44.6592 0 44.4206 0.0751404 44.2202 0.215248C44.0198 0.355355 43.8673 0.553661 43.7833 0.783318L42.1174 5.31346C42.1092 5.33583 42.0947 5.35534 42.0756 5.36964C42.0565 5.38394 42.0337 5.39242 42.01 5.39407L37.1735 5.57678C36.9245 5.58084 36.683 5.66274 36.4829 5.81099C36.2827 5.95924 36.134 6.16641 36.0576 6.40344C35.9811 6.64047 35.9808 6.89548 36.0566 7.13272C36.1324 7.36996 36.2806 7.57752 36.4803 7.72631L40.2742 10.7088C40.2932 10.7237 40.3074 10.7439 40.315 10.7668C40.3227 10.7898 40.3234 10.8144 40.3172 10.8378L39.0114 15.4646C38.9437 15.7002 38.9502 15.951 39.0301 16.1827C39.11 16.4145 39.2594 16.616 39.4578 16.7599C39.6563 16.9037 39.8943 16.983 40.1394 16.9868C40.3845 16.9906 40.6248 16.9188 40.8277 16.7812L44.8366 14.0943C44.8563 14.0807 44.8798 14.0734 44.9038 14.0734C44.9278 14.0734 44.9512 14.0807 44.9709 14.0943L48.9798 16.7812C49.1799 16.9235 49.4194 17 49.665 17C49.9105 17 50.15 16.9235 50.3501 16.7812C50.5487 16.6387 50.6982 16.4382 50.778 16.2072C50.8579 15.9762 50.8642 15.7262 50.7962 15.4915L49.4796 10.8485C49.4726 10.8252 49.473 10.8003 49.4807 10.7772C49.4884 10.7541 49.503 10.734 49.5226 10.7195L53.3326 7.71019Z" fill="#3D3B54"/>
<path d="M71.3326 7.71019C71.5323 7.5614 71.6805 7.35384 71.7563 7.1166C71.8321 6.87936 71.8318 6.62435 71.7553 6.38732C71.6789 6.15029 71.5302 5.94312 71.33 5.79487C71.1299 5.64662 70.8884 5.56472 70.6394 5.56065L65.8029 5.37794C65.7792 5.3763 65.7564 5.36782 65.7373 5.35352C65.7182 5.33922 65.7037 5.31971 65.6955 5.29734L64.0242 0.783318C63.9402 0.553661 63.7877 0.355355 63.5873 0.215248C63.3869 0.0751404 63.1483 0 62.9038 0C62.6592 0 62.4206 0.0751404 62.2202 0.215248C62.0198 0.355355 61.8673 0.553661 61.7833 0.783318L60.1174 5.31346C60.1092 5.33583 60.0947 5.35534 60.0756 5.36964C60.0565 5.38394 60.0337 5.39242 60.01 5.39407L55.1735 5.57678C54.9245 5.58084 54.683 5.66274 54.4829 5.81099C54.2827 5.95924 54.134 6.16641 54.0576 6.40344C53.9811 6.64047 53.9808 6.89548 54.0566 7.13272C54.1324 7.36996 54.2806 7.57752 54.4803 7.72631L58.2742 10.7088C58.2932 10.7237 58.3074 10.7439 58.315 10.7668C58.3227 10.7898 58.3234 10.8144 58.3172 10.8378L57.0114 15.4646C56.9437 15.7002 56.9502 15.951 57.0301 16.1827C57.11 16.4145 57.2594 16.616 57.4578 16.7599C57.6563 16.9037 57.8943 16.983 58.1394 16.9868C58.3845 16.9906 58.6248 16.9188 58.8277 16.7812L62.8366 14.0943C62.8563 14.0807 62.8798 14.0734 62.9038 14.0734C62.9278 14.0734 62.9512 14.0807 62.9709 14.0943L66.9798 16.7812C67.1799 16.9235 67.4194 17 67.665 17C67.9105 17 68.15 16.9235 68.3501 16.7812C68.5487 16.6387 68.6982 16.4382 68.778 16.2072C68.8579 15.9762 68.8642 15.7262 68.7962 15.4915L67.4796 10.8485C67.4726 10.8252 67.473 10.8003 67.4807 10.7772C67.4884 10.7541 67.503 10.734 67.5226 10.7195L71.3326 7.71019Z" fill="#3D3B54"/>
<path d="M89.3326 7.71019C89.5323 7.5614 89.6805 7.35384 89.7563 7.1166C89.8321 6.87936 89.8318 6.62435 89.7553 6.38732C89.6789 6.15029 89.5302 5.94312 89.33 5.79487C89.1299 5.64662 88.8884 5.56472 88.6394 5.56065L83.8029 5.37794C83.7792 5.3763 83.7564 5.36782 83.7373 5.35352C83.7182 5.33922 83.7037 5.31971 83.6955 5.29734L82.0242 0.783318C81.9402 0.553661 81.7877 0.355355 81.5873 0.215248C81.3869 0.0751404 81.1483 0 80.9038 0C80.6592 0 80.4206 0.0751404 80.2202 0.215248C80.0198 0.355355 79.8673 0.553661 79.7833 0.783318L78.1174 5.31346C78.1092 5.33583 78.0947 5.35534 78.0756 5.36964C78.0565 5.38394 78.0337 5.39242 78.01 5.39407L73.1735 5.57678C72.9245 5.58084 72.683 5.66274 72.4829 5.81099C72.2827 5.95924 72.134 6.16641 72.0576 6.40344C71.9811 6.64047 71.9808 6.89548 72.0566 7.13272C72.1324 7.36996 72.2806 7.57752 72.4803 7.72631L76.2742 10.7088C76.2932 10.7237 76.3074 10.7439 76.315 10.7668C76.3227 10.7898 76.3234 10.8144 76.3172 10.8378L75.0114 15.4646C74.9437 15.7002 74.9502 15.951 75.0301 16.1827C75.11 16.4145 75.2594 16.616 75.4578 16.7599C75.6563 16.9037 75.8943 16.983 76.1394 16.9868C76.3845 16.9906 76.6248 16.9188 76.8277 16.7812L80.8366 14.0943C80.8563 14.0807 80.8798 14.0734 80.9038 14.0734C80.9278 14.0734 80.9512 14.0807 80.9709 14.0943L84.9798 16.7812C85.1799 16.9235 85.4194 17 85.665 17C85.9105 17 86.15 16.9235 86.3501 16.7812C86.5487 16.6387 86.6982 16.4382 86.778 16.2072C86.8579 15.9762 86.8642 15.7262 86.7962 15.4915L85.4796 10.8485C85.4726 10.8252 85.473 10.8003 85.4807 10.7772C85.4884 10.7541 85.503 10.734 85.5226 10.7195L89.3326 7.71019Z" fill="#3D3B54"/>
<path d="M107.333 7.71019C107.532 7.5614 107.68 7.35384 107.756 7.1166C107.832 6.87936 107.832 6.62435 107.755 6.38732C107.679 6.15029 107.53 5.94312 107.33 5.79487C107.13 5.64662 106.888 5.56472 106.639 5.56065L101.803 5.37794C101.779 5.3763 101.756 5.36782 101.737 5.35352C101.718 5.33922 101.704 5.31971 101.695 5.29734L100.024 0.783318C99.9402 0.553661 99.7877 0.355355 99.5873 0.215248C99.3869 0.0751404 99.1483 0 98.9038 0C98.6592 0 98.4206 0.0751404 98.2202 0.215248C98.0198 0.355355 97.8673 0.553661 97.7833 0.783318L96.1174 5.31346C96.1092 5.33583 96.0947 5.35534 96.0756 5.36964C96.0565 5.38394 96.0337 5.39242 96.01 5.39407L91.1735 5.57678C90.9245 5.58084 90.683 5.66274 90.4829 5.81099C90.2827 5.95924 90.134 6.16641 90.0576 6.40344C89.9811 6.64047 89.9808 6.89548 90.0566 7.13272C90.1324 7.36996 90.2806 7.57752 90.4803 7.72631L94.2742 10.7088C94.2932 10.7237 94.3074 10.7439 94.315 10.7668C94.3227 10.7898 94.3234 10.8144 94.3172 10.8378L93.0114 15.4646C92.9437 15.7002 92.9502 15.951 93.0301 16.1827C93.11 16.4145 93.2594 16.616 93.4578 16.7599C93.6563 16.9037 93.8943 16.983 94.1394 16.9868C94.3845 16.9906 94.6248 16.9188 94.8277 16.7812L98.8366 14.0943C98.8563 14.0807 98.8798 14.0734 98.9038 14.0734C98.9278 14.0734 98.9512 14.0807 98.9709 14.0943L102.98 16.7812C103.18 16.9235 103.419 17 103.665 17C103.911 17 104.15 16.9235 104.35 16.7812C104.549 16.6387 104.698 16.4382 104.778 16.2072C104.858 15.9762 104.864 15.7262 104.796 15.4915L103.48 10.8485C103.473 10.8252 103.473 10.8003 103.481 10.7772C103.488 10.7541 103.503 10.734 103.523 10.7195L107.333 7.71019Z" fill="#3D3B54"/>
</svg>
