<svg width="10" height="10" viewBox="0 0 10 10" fill="none" xmlns="http://www.w3.org/2000/svg">
<path fill-rule="evenodd" clip-rule="evenodd" d="M7.92229 0.639013L7.51767 1.04364L8.95636 2.48233L9.36099 2.07771C9.5348 1.90389 9.5348 1.62209 9.36099 1.44828L8.55172 0.639013C8.37791 0.465201 8.09611 0.465201 7.92229 0.639013ZM0.796307 7.765L7.158 1.40331L8.59669 2.842L2.235 9.20369C2.16195 9.27674 2.06578 9.3221 1.96295 9.332L0.529995 9.47001L0.667998 8.03705C0.6779 7.93422 0.723262 7.83805 0.796307 7.765ZM0.436634 7.40533C0.280109 7.56185 0.182906 7.76795 0.161686 7.98829L0.00150071 9.65158C-0.017664 9.85058 0.149424 10.0177 0.348422 9.9985L2.01171 9.83831C2.23205 9.81709 2.43815 9.71989 2.59467 9.56337L9.72066 2.43738C10.0931 2.06492 10.0931 1.46106 9.72066 1.0886L8.9114 0.27934C8.53894 -0.0931134 7.93507 -0.0931134 7.56262 0.27934L0.436634 7.40533ZM1.94274 8.41694L7.18048 3.17921C7.2798 3.07988 7.2798 2.91885 7.18048 2.81953C7.08116 2.72021 6.92013 2.72021 6.8208 2.81953L1.58307 8.05727C1.48375 8.15659 1.48375 8.31762 1.58307 8.41694C1.68239 8.51626 1.84342 8.51626 1.94274 8.41694Z" fill="white"/>
</svg>
