<svg width="14" height="12" viewBox="0 0 14 12" fill="none" xmlns="http://www.w3.org/2000/svg">
<path fill-rule="evenodd" clip-rule="evenodd" d="M1.90909 0.636364H12.0909C12.2807 0.636364 12.4608 0.677909 12.6226 0.752402L8.1344 5.24051C7.51311 5.86179 6.50581 5.86179 5.88452 5.2405L1.3904 0.746507C1.54882 0.675721 1.72436 0.636364 1.90909 0.636364ZM0.890206 1.14627C0.7308 1.35884 0.636364 1.62294 0.636364 1.90909V9.54545C0.636364 10.2484 1.20618 10.8182 1.90909 10.8182H12.0909C12.7938 10.8182 13.3636 10.2484 13.3636 9.54545V1.90909C13.3636 1.62778 13.2724 1.36779 13.1178 1.15711L8.58438 5.69048C7.71457 6.56029 6.30434 6.56028 5.43454 5.69048L0.890206 1.14627ZM0 1.90909C0 0.854729 0.854729 0 1.90909 0H12.0909C13.1453 0 14 0.854729 14 1.90909V9.54545C14 10.5998 13.1453 11.4545 12.0909 11.4545H1.90909C0.854729 11.4545 0 10.5998 0 9.54545V1.90909Z" fill="white" fill-opacity="0.5"/>
</svg>
