<svg width="14" height="14" viewBox="0 0 14 14" fill="none" xmlns="http://www.w3.org/2000/svg">
<g clip-path="url(#clip0_44_249)">
<path d="M2.1875 10.0625H0.4375C0.321468 10.0625 0.210188 10.1086 0.128141 10.1906C0.0460936 10.2727 0 10.384 0 10.5L0 12.25C0 12.366 0.0460936 12.4773 0.128141 12.5594C0.210188 12.6414 0.321468 12.6875 0.4375 12.6875H2.1875C2.30353 12.6875 2.41481 12.6414 2.49686 12.5594C2.57891 12.4773 2.625 12.366 2.625 12.25V10.5C2.625 10.384 2.57891 10.2727 2.49686 10.1906C2.41481 10.1086 2.30353 10.0625 2.1875 10.0625ZM2.1875 1.3125H0.4375C0.321468 1.3125 0.210188 1.35859 0.128141 1.44064C0.0460936 1.52269 0 1.63397 0 1.75L0 3.5C0 3.61603 0.0460936 3.72731 0.128141 3.80936C0.210188 3.89141 0.321468 3.9375 0.4375 3.9375H2.1875C2.30353 3.9375 2.41481 3.89141 2.49686 3.80936C2.57891 3.72731 2.625 3.61603 2.625 3.5V1.75C2.625 1.63397 2.57891 1.52269 2.49686 1.44064C2.41481 1.35859 2.30353 1.3125 2.1875 1.3125ZM2.1875 5.6875H0.4375C0.321468 5.6875 0.210188 5.73359 0.128141 5.81564C0.0460936 5.89769 0 6.00897 0 6.125L0 7.875C0 7.99103 0.0460936 8.10231 0.128141 8.18436C0.210188 8.26641 0.321468 8.3125 0.4375 8.3125H2.1875C2.30353 8.3125 2.41481 8.26641 2.49686 8.18436C2.57891 8.10231 2.625 7.99103 2.625 7.875V6.125C2.625 6.00897 2.57891 5.89769 2.49686 5.81564C2.41481 5.73359 2.30353 5.6875 2.1875 5.6875ZM13.5625 10.5H4.8125C4.69647 10.5 4.58519 10.5461 4.50314 10.6281C4.42109 10.7102 4.375 10.8215 4.375 10.9375V11.8125C4.375 11.9285 4.42109 12.0398 4.50314 12.1219C4.58519 12.2039 4.69647 12.25 4.8125 12.25H13.5625C13.6785 12.25 13.7898 12.2039 13.8719 12.1219C13.9539 12.0398 14 11.9285 14 11.8125V10.9375C14 10.8215 13.9539 10.7102 13.8719 10.6281C13.7898 10.5461 13.6785 10.5 13.5625 10.5ZM13.5625 1.75H4.8125C4.69647 1.75 4.58519 1.79609 4.50314 1.87814C4.42109 1.96019 4.375 2.07147 4.375 2.1875V3.0625C4.375 3.17853 4.42109 3.28981 4.50314 3.37186C4.58519 3.45391 4.69647 3.5 4.8125 3.5H13.5625C13.6785 3.5 13.7898 3.45391 13.8719 3.37186C13.9539 3.28981 14 3.17853 14 3.0625V2.1875C14 2.07147 13.9539 1.96019 13.8719 1.87814C13.7898 1.79609 13.6785 1.75 13.5625 1.75ZM13.5625 6.125H4.8125C4.69647 6.125 4.58519 6.17109 4.50314 6.25314C4.42109 6.33519 4.375 6.44647 4.375 6.5625V7.4375C4.375 7.55353 4.42109 7.66481 4.50314 7.74686C4.58519 7.82891 4.69647 7.875 4.8125 7.875H13.5625C13.6785 7.875 13.7898 7.82891 13.8719 7.74686C13.9539 7.66481 14 7.55353 14 7.4375V6.5625C14 6.44647 13.9539 6.33519 13.8719 6.25314C13.7898 6.17109 13.6785 6.125 13.5625 6.125Z" fill="white" fill-opacity="0.5"/>
</g>
<defs>
<clipPath id="clip0_44_249">
<rect width="14" height="14" fill="white"/>
</clipPath>
</defs>
</svg>
