<svg width="6" height="5" viewBox="0 0 6 5" fill="none" xmlns="http://www.w3.org/2000/svg">
<path d="M5.4082 1.12925C5.32966 0.947398 5.21642 0.782605 5.07481 0.644096C4.93309 0.505173 4.76599 0.394774 4.58262 0.318901C4.39247 0.239912 4.18852 0.199481 3.98262 0.199955C3.69375 0.199955 3.41191 0.279057 3.16699 0.428471C3.1084 0.464213 3.05273 0.503471 3 0.546244C2.94727 0.503471 2.8916 0.464213 2.83301 0.428471C2.58809 0.279057 2.30625 0.199955 2.01738 0.199955C1.80938 0.199955 1.60781 0.239799 1.41738 0.318901C1.2334 0.395072 1.06758 0.504643 0.925195 0.644096C0.783397 0.782448 0.670124 0.947281 0.591797 1.12925C0.510352 1.31851 0.46875 1.51949 0.46875 1.72632C0.46875 1.92144 0.508594 2.12476 0.587695 2.33159C0.653906 2.50445 0.748828 2.68374 0.870117 2.8648C1.0623 3.15132 1.32656 3.45015 1.65469 3.75308C2.19844 4.25523 2.73691 4.6021 2.75977 4.61616L2.89863 4.70523C2.96016 4.74448 3.03926 4.74448 3.10078 4.70523L3.23965 4.61616C3.2625 4.60152 3.80039 4.25523 4.34473 3.75308C4.67285 3.45015 4.93711 3.15132 5.1293 2.8648C5.25059 2.68374 5.34609 2.50445 5.41172 2.33159C5.49082 2.12476 5.53066 1.92144 5.53066 1.72632C5.53125 1.51949 5.48965 1.31851 5.4082 1.12925Z" fill="#EC2626"/>
</svg>
