<svg width="50" height="10" viewBox="0 0 50 10" fill="none" xmlns="http://www.w3.org/2000/svg">
<path d="M9.44448 4.661C9.54772 4.58409 9.6243 4.4768 9.66348 4.35417C9.70267 4.23154 9.70249 4.09972 9.66298 3.97719C9.62346 3.85467 9.54659 3.74759 9.44315 3.67095C9.3397 3.59432 9.21487 3.55199 9.08615 3.54989L6.58615 3.45544C6.57386 3.45459 6.56207 3.45021 6.55222 3.44281C6.54236 3.43542 6.53485 3.42534 6.53059 3.41377L5.6667 1.08044C5.6233 0.961729 5.54446 0.859223 5.44087 0.7868C5.33728 0.714378 5.21393 0.675537 5.08754 0.675537C4.96114 0.675537 4.83779 0.714378 4.7342 0.7868C4.63061 0.859223 4.55177 0.961729 4.50837 1.08044L3.64726 3.42211C3.643 3.43367 3.63549 3.44376 3.62564 3.45115C3.61578 3.45854 3.604 3.46293 3.5917 3.46377L1.0917 3.55822C0.962983 3.56032 0.838148 3.60266 0.734702 3.67929C0.631256 3.75592 0.554387 3.863 0.514873 3.98553C0.475359 4.10805 0.475182 4.23987 0.514366 4.3625C0.55355 4.48513 0.630131 4.59242 0.733371 4.66933L2.69448 6.211C2.7043 6.21872 2.71163 6.22915 2.71558 6.241C2.71953 6.25285 2.71992 6.2656 2.7167 6.27766L2.0417 8.66933C2.00673 8.79112 2.01011 8.92073 2.05141 9.04052C2.0927 9.16032 2.1699 9.26449 2.2725 9.33885C2.37509 9.41322 2.4981 9.45418 2.6248 9.45615C2.7515 9.45812 2.87573 9.42102 2.98059 9.34989L5.05281 7.961C5.06302 7.95395 5.07513 7.95017 5.08754 7.95017C5.09994 7.95017 5.11205 7.95395 5.12226 7.961L7.19448 9.34989C7.29793 9.42345 7.42171 9.46298 7.54865 9.46298C7.67558 9.46298 7.79937 9.42345 7.90281 9.34989C8.00544 9.27622 8.08271 9.17256 8.12399 9.05318C8.16528 8.93379 8.16856 8.80454 8.13337 8.68322L7.45281 6.28322C7.44921 6.27117 7.44941 6.2583 7.45338 6.24637C7.45736 6.23444 7.46492 6.22403 7.47504 6.21655L9.44448 4.661Z" fill="#EC2626"/>
<path d="M19.4445 4.661C19.5477 4.58409 19.6243 4.4768 19.6635 4.35417C19.7027 4.23154 19.7025 4.09972 19.663 3.97719C19.6235 3.85467 19.5466 3.74759 19.4431 3.67095C19.3397 3.59432 19.2149 3.55199 19.0861 3.54989L16.5861 3.45544C16.5739 3.45459 16.5621 3.45021 16.5522 3.44281C16.5424 3.43542 16.5348 3.42534 16.5306 3.41377L15.6667 1.08044C15.6233 0.961729 15.5445 0.859223 15.4409 0.7868C15.3373 0.714378 15.2139 0.675537 15.0875 0.675537C14.9611 0.675537 14.8378 0.714378 14.7342 0.7868C14.6306 0.859223 14.5518 0.961729 14.5084 1.08044L13.6473 3.42211C13.643 3.43367 13.6355 3.44376 13.6256 3.45115C13.6158 3.45854 13.604 3.46293 13.5917 3.46377L11.0917 3.55822C10.963 3.56032 10.8381 3.60266 10.7347 3.67929C10.6313 3.75592 10.5544 3.863 10.5149 3.98553C10.4754 4.10805 10.4752 4.23987 10.5144 4.3625C10.5536 4.48513 10.6301 4.59242 10.7334 4.66933L12.6945 6.211C12.7043 6.21872 12.7116 6.22915 12.7156 6.241C12.7195 6.25285 12.7199 6.2656 12.7167 6.27766L12.0417 8.66933C12.0067 8.79112 12.0101 8.92073 12.0514 9.04052C12.0927 9.16032 12.1699 9.26449 12.2725 9.33885C12.3751 9.41322 12.4981 9.45418 12.6248 9.45615C12.7515 9.45812 12.8757 9.42102 12.9806 9.34989L15.0528 7.961C15.063 7.95395 15.0751 7.95017 15.0875 7.95017C15.0999 7.95017 15.1121 7.95395 15.1223 7.961L17.1945 9.34989C17.2979 9.42345 17.4217 9.46298 17.5486 9.46298C17.6756 9.46298 17.7994 9.42345 17.9028 9.34989C18.0054 9.27622 18.0827 9.17256 18.124 9.05318C18.1653 8.93379 18.1686 8.80454 18.1334 8.68322L17.4528 6.28322C17.4492 6.27117 17.4494 6.2583 17.4534 6.24637C17.4574 6.23444 17.4649 6.22403 17.475 6.21655L19.4445 4.661Z" fill="#EC2626"/>
<path d="M29.4445 4.661C29.5477 4.58409 29.6243 4.4768 29.6635 4.35417C29.7027 4.23154 29.7025 4.09972 29.663 3.97719C29.6235 3.85467 29.5466 3.74759 29.4431 3.67095C29.3397 3.59432 29.2149 3.55199 29.0861 3.54989L26.5861 3.45544C26.5739 3.45459 26.5621 3.45021 26.5522 3.44281C26.5424 3.43542 26.5348 3.42534 26.5306 3.41377L25.6667 1.08044C25.6233 0.961729 25.5445 0.859223 25.4409 0.7868C25.3373 0.714378 25.2139 0.675537 25.0875 0.675537C24.9611 0.675537 24.8378 0.714378 24.7342 0.7868C24.6306 0.859223 24.5518 0.961729 24.5084 1.08044L23.6473 3.42211C23.643 3.43367 23.6355 3.44376 23.6256 3.45115C23.6158 3.45854 23.604 3.46293 23.5917 3.46377L21.0917 3.55822C20.963 3.56032 20.8381 3.60266 20.7347 3.67929C20.6313 3.75592 20.5544 3.863 20.5149 3.98553C20.4754 4.10805 20.4752 4.23987 20.5144 4.3625C20.5536 4.48513 20.6301 4.59242 20.7334 4.66933L22.6945 6.211C22.7043 6.21872 22.7116 6.22915 22.7156 6.241C22.7195 6.25285 22.7199 6.2656 22.7167 6.27766L22.0417 8.66933C22.0067 8.79112 22.0101 8.92073 22.0514 9.04052C22.0927 9.16032 22.1699 9.26449 22.2725 9.33885C22.3751 9.41322 22.4981 9.45418 22.6248 9.45615C22.7515 9.45812 22.8757 9.42102 22.9806 9.34989L25.0528 7.961C25.063 7.95395 25.0751 7.95017 25.0875 7.95017C25.0999 7.95017 25.1121 7.95395 25.1223 7.961L27.1945 9.34989C27.2979 9.42345 27.4217 9.46298 27.5486 9.46298C27.6756 9.46298 27.7994 9.42345 27.9028 9.34989C28.0054 9.27622 28.0827 9.17256 28.124 9.05318C28.1653 8.93379 28.1686 8.80454 28.1334 8.68322L27.4528 6.28322C27.4492 6.27117 27.4494 6.2583 27.4534 6.24637C27.4574 6.23444 27.4649 6.22403 27.475 6.21655L29.4445 4.661Z" fill="#EC2626"/>
<path d="M39.4445 4.661C39.5477 4.58409 39.6243 4.4768 39.6635 4.35417C39.7027 4.23154 39.7025 4.09972 39.663 3.97719C39.6235 3.85467 39.5466 3.74759 39.4431 3.67095C39.3397 3.59432 39.2149 3.55199 39.0861 3.54989L36.5861 3.45544C36.5739 3.45459 36.5621 3.45021 36.5522 3.44281C36.5424 3.43542 36.5348 3.42534 36.5306 3.41377L35.6667 1.08044C35.6233 0.961729 35.5445 0.859223 35.4409 0.7868C35.3373 0.714378 35.2139 0.675537 35.0875 0.675537C34.9611 0.675537 34.8378 0.714378 34.7342 0.7868C34.6306 0.859223 34.5518 0.961729 34.5084 1.08044L33.6473 3.42211C33.643 3.43367 33.6355 3.44376 33.6256 3.45115C33.6158 3.45854 33.604 3.46293 33.5917 3.46377L31.0917 3.55822C30.963 3.56032 30.8381 3.60266 30.7347 3.67929C30.6313 3.75592 30.5544 3.863 30.5149 3.98553C30.4754 4.10805 30.4752 4.23987 30.5144 4.3625C30.5536 4.48513 30.6301 4.59242 30.7334 4.66933L32.6945 6.211C32.7043 6.21872 32.7116 6.22915 32.7156 6.241C32.7195 6.25285 32.7199 6.2656 32.7167 6.27766L32.0417 8.66933C32.0067 8.79112 32.0101 8.92073 32.0514 9.04052C32.0927 9.16032 32.1699 9.26449 32.2725 9.33885C32.3751 9.41322 32.4981 9.45418 32.6248 9.45615C32.7515 9.45812 32.8757 9.42102 32.9806 9.34989L35.0528 7.961C35.063 7.95395 35.0751 7.95017 35.0875 7.95017C35.0999 7.95017 35.1121 7.95395 35.1223 7.961L37.1945 9.34989C37.2979 9.42345 37.4217 9.46298 37.5486 9.46298C37.6756 9.46298 37.7994 9.42345 37.9028 9.34989C38.0054 9.27622 38.0827 9.17256 38.124 9.05318C38.1653 8.93379 38.1686 8.80454 38.1334 8.68322L37.4528 6.28322C37.4492 6.27117 37.4494 6.2583 37.4534 6.24637C37.4574 6.23444 37.4649 6.22403 37.475 6.21655L39.4445 4.661Z" fill="#EC2626"/>
<path d="M49.4445 4.661C49.5477 4.58409 49.6243 4.4768 49.6635 4.35417C49.7027 4.23154 49.7025 4.09972 49.663 3.97719C49.6235 3.85467 49.5466 3.74759 49.4431 3.67095C49.3397 3.59432 49.2149 3.55199 49.0861 3.54989L46.5861 3.45544C46.5739 3.45459 46.5621 3.45021 46.5522 3.44281C46.5424 3.43542 46.5348 3.42534 46.5306 3.41377L45.6667 1.08044C45.6233 0.961729 45.5445 0.859223 45.4409 0.7868C45.3373 0.714378 45.2139 0.675537 45.0875 0.675537C44.9611 0.675537 44.8378 0.714378 44.7342 0.7868C44.6306 0.859223 44.5518 0.961729 44.5084 1.08044L43.6473 3.42211C43.643 3.43367 43.6355 3.44376 43.6256 3.45115C43.6158 3.45854 43.604 3.46293 43.5917 3.46377L41.0917 3.55822C40.963 3.56032 40.8381 3.60266 40.7347 3.67929C40.6313 3.75592 40.5544 3.863 40.5149 3.98553C40.4754 4.10805 40.4752 4.23987 40.5144 4.3625C40.5536 4.48513 40.6301 4.59242 40.7334 4.66933L42.6945 6.211C42.7043 6.21872 42.7116 6.22915 42.7156 6.241C42.7195 6.25285 42.7199 6.2656 42.7167 6.27766L42.0417 8.66933C42.0067 8.79112 42.0101 8.92073 42.0514 9.04052C42.0927 9.16032 42.1699 9.26449 42.2725 9.33885C42.3751 9.41322 42.4981 9.45418 42.6248 9.45615C42.7515 9.45812 42.8757 9.42102 42.9806 9.34989L45.0528 7.961C45.063 7.95395 45.0751 7.95017 45.0875 7.95017C45.0999 7.95017 45.1121 7.95395 45.1223 7.961L47.1945 9.34989C47.2979 9.42345 47.4217 9.46298 47.5486 9.46298C47.6756 9.46298 47.7994 9.42345 47.9028 9.34989C48.0054 9.27622 48.0827 9.17256 48.124 9.05318C48.1653 8.93379 48.1686 8.80454 48.1334 8.68322L47.4528 6.28322C47.4492 6.27117 47.4494 6.2583 47.4534 6.24637C47.4574 6.23444 47.4649 6.22403 47.475 6.21655L49.4445 4.661Z" fill="#EC2626"/>
</svg>
