<svg width="18" height="16" viewBox="0 0 18 16" fill="none" xmlns="http://www.w3.org/2000/svg">
<path d="M1 1H5.66667C6.49178 1 7.28311 1.32778 7.86655 1.91122C8.45 2.49467 8.77778 3.28599 8.77778 4.11111V15C8.77778 14.3812 8.53195 13.7877 8.09436 13.3501C7.65678 12.9125 7.06328 12.6667 6.44444 12.6667H1V1Z" stroke="white" stroke-opacity="0.5" stroke-width="1.1" stroke-linecap="round" stroke-linejoin="round"/>
<path d="M16.5555 1H11.8889C11.0638 1 10.2724 1.32778 9.68899 1.91122C9.10555 2.49467 8.77777 3.28599 8.77777 4.11111V15C8.77777 14.3812 9.0236 13.7877 9.46119 13.3501C9.89877 12.9125 10.4923 12.6667 11.1111 12.6667H16.5555V1Z" stroke="white" stroke-opacity="0.5" stroke-width="1.1" stroke-linecap="round" stroke-linejoin="round"/>
</svg>
