<svg width="19" height="17" viewBox="0 0 19 17" fill="none" xmlns="http://www.w3.org/2000/svg">
<path d="M18.5173 3.48381C18.2228 2.80207 17.7983 2.18428 17.2674 1.66503C16.7361 1.14423 16.1097 0.730362 15.4223 0.445924C14.7094 0.149808 13.9449 -0.0017612 13.173 1.54396e-05C12.09 1.54396e-05 11.0335 0.296555 10.1153 0.856687C9.89565 0.990679 9.68697 1.13785 9.48928 1.2982C9.29159 1.13785 9.08291 0.990679 8.86325 0.856687C7.94508 0.296555 6.88851 1.54396e-05 5.80559 1.54396e-05C5.0258 1.54396e-05 4.27018 0.149384 3.55628 0.445924C2.86655 0.731481 2.24492 1.14224 1.71115 1.66503C1.17956 2.1837 0.75492 2.80163 0.461284 3.48381C0.155958 4.19331 0 4.94674 0 5.72214C0 6.45361 0.149368 7.21582 0.445908 7.99122C0.694123 8.63922 1.04997 9.31137 1.50467 9.99012C2.22515 11.0643 3.21581 12.1845 4.4459 13.3202C6.48434 15.2026 8.50301 16.503 8.58868 16.5557L9.10927 16.8896C9.33991 17.0368 9.63645 17.0368 9.86709 16.8896L10.3877 16.5557C10.4734 16.5008 12.4898 15.2026 14.5305 13.3202C15.7606 12.1845 16.7512 11.0643 17.4717 9.99012C17.9264 9.31137 18.2844 8.63922 18.5305 7.99122C18.827 7.21582 18.9764 6.45361 18.9764 5.72214C18.9786 4.94674 18.8226 4.19331 18.5173 3.48381Z" fill="#3D3B54"/>
</svg>
