<svg width="12" height="10" viewBox="0 0 12 10" fill="none" xmlns="http://www.w3.org/2000/svg">
<path d="M3.33333 4.10714V5.89286C3.33333 6.18873 3.09348 6.42857 2.79761 6.42857H0.535714C0.239844 6.42857 0 6.18873 0 5.89286V4.10714C0 3.81127 0.239844 3.57143 0.535714 3.57143H2.79761C3.09348 3.57143 3.33333 3.81127 3.33333 4.10714ZM0 7.67857V9.46429C0 9.76016 0.239844 10 0.535714 10H2.79761C3.09348 10 3.33333 9.76016 3.33333 9.46429V7.67857C3.33333 7.3827 3.09348 7.14286 2.79761 7.14286H0.535714C0.239844 7.14286 0 7.3827 0 7.67857ZM2.79761 0H0.535714C0.239844 0 0 0.239844 0 0.535714V2.32143C0 2.6173 0.239844 2.85714 0.535714 2.85714H2.79761C3.09348 2.85714 3.33333 2.6173 3.33333 2.32143V0.535714C3.33333 0.239844 3.09348 0 2.79761 0ZM4.58333 10H10.8929C11.1887 10 11.4286 9.76016 11.4286 9.46429V7.67857C11.4286 7.3827 11.1887 7.14286 10.8929 7.14286H4.58333C4.28746 7.14286 4.04761 7.3827 4.04761 7.67857V9.46429C4.04761 9.76016 4.28746 10 4.58333 10ZM4.04761 0.535714V2.32143C4.04761 2.6173 4.28746 2.85714 4.58333 2.85714H10.8929C11.1887 2.85714 11.4286 2.6173 11.4286 2.32143V0.535714C11.4286 0.239844 11.1887 0 10.8929 0H4.58333C4.28746 0 4.04761 0.239844 4.04761 0.535714ZM4.58333 6.42857H10.8929C11.1887 6.42857 11.4286 6.18873 11.4286 5.89286V4.10714C11.4286 3.81127 11.1887 3.57143 10.8929 3.57143H4.58333C4.28746 3.57143 4.04761 3.81127 4.04761 4.10714V5.89286C4.04761 6.18873 4.28746 6.42857 4.58333 6.42857Z" fill="#088DD8"/>
</svg>
