<svg width="13" height="14" viewBox="0 0 13 14" fill="none" xmlns="http://www.w3.org/2000/svg">
<path fill-rule="evenodd" clip-rule="evenodd" d="M1.75 4.93182C1.75 2.5595 3.67314 0.636364 6.04545 0.636364C8.41777 0.636364 10.3409 2.5595 10.3409 4.93182V6.37017C10.2885 6.36584 10.2354 6.36364 10.1818 6.36364H1.90909C1.85552 6.36364 1.80246 6.36584 1.75 6.37017V4.93182ZM1.11364 6.53674V4.93182C1.11364 2.20805 3.32169 0 6.04545 0C8.76922 0 10.9773 2.20805 10.9773 4.93182V6.53674C11.6345 6.83838 12.0909 7.50225 12.0909 8.27273V12.0909C12.0909 13.1453 11.2362 14 10.1818 14H1.90909C0.854729 14 0 13.1453 0 12.0909V8.27273C0 7.50225 0.456422 6.83838 1.11364 6.53674ZM11.4545 8.27273C11.4545 7.56982 10.8847 7 10.1818 7H1.90909C1.20618 7 0.636364 7.56982 0.636364 8.27273V12.0909C0.636364 12.7938 1.20618 13.3636 1.90909 13.3636H10.1818C10.8847 13.3636 11.4545 12.7938 11.4545 12.0909V8.27273ZM6.36364 10.8182V9.54546C6.36364 9.36973 6.22118 9.22727 6.04545 9.22727C5.86972 9.22727 5.72727 9.36973 5.72727 9.54546V10.8182C5.72727 10.9939 5.86972 11.1364 6.04545 11.1364C6.22118 11.1364 6.36364 10.9939 6.36364 10.8182ZM7 9.54546C7 9.01827 6.57263 8.59091 6.04545 8.59091C5.51827 8.59091 5.0909 9.01827 5.0909 9.54546V10.8182C5.0909 11.3454 5.51827 11.7727 6.04545 11.7727C6.57263 11.7727 7 11.3454 7 10.8182V9.54546Z" fill="white" fill-opacity="0.5"/>
</svg>
