<svg width="15" height="14" viewBox="0 0 15 14" fill="none" xmlns="http://www.w3.org/2000/svg">
<path fill-rule="evenodd" clip-rule="evenodd" d="M0 2.22727C0 0.997184 0.997184 0 2.22727 0H7C8.23009 0 9.22727 0.997184 9.22727 2.22727V3.65909C9.22727 3.83482 9.08482 3.97727 8.90909 3.97727C8.73336 3.97727 8.59091 3.83482 8.59091 3.65909V2.22727C8.59091 1.34864 7.87863 0.636364 7 0.636364H2.22727C1.34864 0.636364 0.636364 1.34864 0.636364 2.22727V11.7727C0.636364 12.6514 1.34864 13.3636 2.22727 13.3636H7C7.87863 13.3636 8.59091 12.6514 8.59091 11.7727V10.3409C8.59091 10.1652 8.73336 10.0227 8.90909 10.0227C9.08482 10.0227 9.22727 10.1652 9.22727 10.3409V11.7727C9.22727 13.0028 8.23009 14 7 14H2.22727C0.997184 14 0 13.0028 0 11.7727V2.22727ZM10.4739 3.59319C10.5981 3.46894 10.7996 3.46894 10.9239 3.59319L13.7682 6.43752C14.0788 6.74817 14.0788 7.25182 13.7682 7.56247L10.9239 10.4068C10.7996 10.5311 10.5981 10.5311 10.4739 10.4068C10.3496 10.2825 10.3496 10.0811 10.4739 9.95682L13.1125 7.31818L3.81818 7.31818C3.64245 7.31818 3.5 7.17573 3.5 7C3.5 6.82427 3.64245 6.68182 3.81818 6.68182L13.1125 6.68182L10.4739 4.04317C10.3496 3.91891 10.3496 3.71745 10.4739 3.59319Z" fill="white"/>
</svg>
