<svg width="20" height="15" viewBox="0 0 20 15" fill="none" xmlns="http://www.w3.org/2000/svg">
<path fill-rule="evenodd" clip-rule="evenodd" d="M0.445804 0.882353C0.199593 0.882353 0 0.684832 0 0.441176C0 0.197521 0.199593 0 0.445804 0L19.1696 1.65846e-06C19.4158 1.67976e-06 19.6154 0.197523 19.6154 0.441178C19.6154 0.684833 19.4158 0.882355 19.1696 0.882355L0.445804 0.882353ZM0 7.5C0 7.74365 0.199593 7.94118 0.445804 7.94118H14.2657C14.5119 7.94118 14.7115 7.74365 14.7115 7.5C14.7115 7.25635 14.5119 7.05882 14.2657 7.05882H0.445804C0.199593 7.05882 0 7.25635 0 7.5ZM0 14.5588C0 14.8025 0.199593 15 0.445804 15H9.36189C9.6081 15 9.80769 14.8025 9.80769 14.5588C9.80769 14.3152 9.6081 14.1176 9.36189 14.1176H0.445804C0.199593 14.1176 0 14.3152 0 14.5588Z" fill="white"/>
</svg>
