<svg width="20" height="22" viewBox="0 0 20 22" fill="none" xmlns="http://www.w3.org/2000/svg">
<path fill-rule="evenodd" clip-rule="evenodd" d="M16.8313 9.65373C16.8313 6.59283 14.92 3.98226 12.2392 2.98901C11.765 2.81334 11.4424 2.43799 11.2836 2.03822C11.053 1.45753 10.4931 1.05075 9.8421 1.05075C9.19109 1.05075 8.63122 1.45753 8.40059 2.03822C8.24182 2.43799 7.91921 2.81334 7.44504 2.98901C4.76415 3.98226 2.8529 6.59283 2.8529 9.65373C2.8529 9.6919 2.8532 9.72999 2.85379 9.76799C2.85412 9.78944 2.85382 9.81075 2.8529 9.8319L2.8529 13.825C2.8529 14.3343 2.61038 14.8122 2.20181 15.108L1.25542 15.7932C0.845295 16.0901 1.0523 16.7463 1.5561 16.7463L18.1281 16.7463C18.6319 16.7463 18.8389 16.0901 18.4288 15.7932L17.4824 15.108C17.0738 14.8122 16.8313 14.3343 16.8313 13.825L16.8313 9.83183C16.8304 9.81071 16.8301 9.78942 16.8304 9.768C16.831 9.73 16.8313 9.6919 16.8313 9.65373ZM12.244 1.64543C12.3085 1.80784 12.4322 1.94194 12.5943 2.00199C15.6436 3.13172 17.8281 6.08499 17.8662 9.56121C17.8666 9.59201 17.8667 9.62285 17.8667 9.65373C17.8667 9.68461 17.8666 9.71546 17.8662 9.74626C17.8661 9.75903 17.8659 9.7718 17.8657 9.78455C17.8657 9.78484 17.8659 9.78508 17.8662 9.78508C17.8665 9.78508 17.8667 9.78531 17.8667 9.78559L17.8667 13.825C17.8667 13.9947 17.9476 14.154 18.0838 14.2527L19.0302 14.9379C20.2605 15.8287 19.6395 17.797 18.1281 17.797L1.5561 17.797C0.0447029 17.797 -0.576316 15.8286 0.654038 14.9379L1.60044 14.2526C1.73662 14.154 1.81747 13.9947 1.81747 13.825L1.81747 9.78559C1.81747 9.7853 1.81769 9.78507 1.81798 9.78507C1.81826 9.78507 1.81849 9.78484 1.81848 9.78455C1.81828 9.77179 1.81811 9.75901 1.81798 9.74623C1.81764 9.71544 1.81747 9.6846 1.81747 9.65373C1.81747 9.62284 1.81764 9.59199 1.81798 9.56118C1.85612 6.08498 4.04065 3.13172 7.08994 2.00199C7.25202 1.94194 7.37572 1.80784 7.44022 1.64543C7.82334 0.680813 8.75437 -9.55516e-07 9.8421 -8.60424e-07C10.9298 -7.65332e-07 11.8609 0.680813 12.244 1.64543ZM11.913 19.3731C11.913 19.083 12.1448 18.8478 12.4307 18.8478C12.7167 18.8478 12.9485 19.083 12.9485 19.3731C12.9485 20.8239 11.7895 22 10.3599 22L9.32444 22C7.8948 22 6.73585 20.8239 6.73585 19.3731C6.73585 19.083 6.96764 18.8478 7.25356 18.8478C7.53949 18.8478 7.77128 19.083 7.77128 19.3731C7.77128 20.2436 8.46665 20.9493 9.32444 20.9493L10.3599 20.9493C11.2177 20.9493 11.913 20.2436 11.913 19.3731Z" fill="white" fill-opacity="0.5"/>
</svg>
