<svg width="34" height="9" viewBox="0 0 34 9" fill="none" xmlns="http://www.w3.org/2000/svg">
<path d="M8.31126 2.99207C8.28507 2.91493 8.23687 2.84715 8.17259 2.79709C8.10832 2.74704 8.0308 2.7169 7.94959 2.7104L5.57418 2.52165L4.54626 0.246236C4.51353 0.17295 4.46028 0.110704 4.39295 0.0670105C4.32562 0.0233172 4.24708 4.41162e-05 4.16681 6.26577e-08C4.08655 -4.39909e-05 4.00798 0.0231428 3.9406 0.0667622C3.87323 0.110382 3.81991 0.172569 3.78709 0.24582L2.75918 2.52165L0.383761 2.7104C0.303951 2.71673 0.227652 2.74591 0.163992 2.79446C0.100333 2.84301 0.052008 2.90887 0.0247998 2.98416C-0.00240849 3.05946 -0.00734831 3.141 0.0105713 3.21903C0.028491 3.29706 0.0685113 3.36827 0.125844 3.42415L1.88126 5.1354L1.26043 7.82374C1.24158 7.90511 1.24762 7.99027 1.27777 8.06817C1.30792 8.14607 1.36079 8.21311 1.42951 8.26058C1.49824 8.30806 1.57964 8.33379 1.66317 8.33442C1.7467 8.33506 1.82849 8.31058 1.89793 8.26415L4.16668 6.75165L6.43543 8.26415C6.5064 8.31127 6.5901 8.33553 6.67527 8.33367C6.76045 8.3318 6.843 8.30389 6.91184 8.2537C6.98068 8.20352 7.0325 8.13345 7.06033 8.05293C7.08816 7.97241 7.09067 7.8853 7.06751 7.80332L6.30543 5.13665L8.19543 3.43582C8.31918 3.32415 8.36459 3.14999 8.31126 2.99207Z" fill="#EC2626"/>
<path d="M18.3113 2.99207C18.2851 2.91493 18.2369 2.84715 18.1726 2.79709C18.1083 2.74704 18.0308 2.7169 17.9496 2.7104L15.5742 2.52165L14.5463 0.246236C14.5135 0.17295 14.4603 0.110704 14.3929 0.0670105C14.3256 0.0233172 14.2471 4.41162e-05 14.1668 6.26577e-08C14.0865 -4.39909e-05 14.008 0.0231428 13.9406 0.0667622C13.8732 0.110382 13.8199 0.172569 13.7871 0.24582L12.7592 2.52165L10.3838 2.7104C10.304 2.71673 10.2277 2.74591 10.164 2.79446C10.1003 2.84301 10.052 2.90887 10.0248 2.98416C9.99759 3.05946 9.99265 3.141 10.0106 3.21903C10.0285 3.29706 10.0685 3.36827 10.1258 3.42415L11.8813 5.1354L11.2604 7.82374C11.2416 7.90511 11.2476 7.99027 11.2778 8.06817C11.3079 8.14607 11.3608 8.21311 11.4295 8.26058C11.4982 8.30806 11.5796 8.33379 11.6632 8.33442C11.7467 8.33506 11.8285 8.31058 11.8979 8.26415L14.1667 6.75165L16.4354 8.26415C16.5064 8.31127 16.5901 8.33553 16.6753 8.33367C16.7604 8.3318 16.843 8.30389 16.9118 8.2537C16.9807 8.20352 17.0325 8.13345 17.0603 8.05293C17.0882 7.97241 17.0907 7.8853 17.0675 7.80332L16.3054 5.13665L18.1954 3.43582C18.3192 3.32415 18.3646 3.14999 18.3113 2.99207Z" fill="#EC2626"/>
<path d="M28.3113 2.99207C28.2851 2.91493 28.2369 2.84715 28.1726 2.79709C28.1083 2.74704 28.0308 2.7169 27.9496 2.7104L25.5742 2.52165L24.5463 0.246236C24.5135 0.17295 24.4603 0.110704 24.3929 0.0670105C24.3256 0.0233172 24.2471 4.41162e-05 24.1668 6.26577e-08C24.0865 -4.39909e-05 24.008 0.0231428 23.9406 0.0667622C23.8732 0.110382 23.8199 0.172569 23.7871 0.24582L22.7592 2.52165L20.3838 2.7104C20.304 2.71673 20.2277 2.74591 20.164 2.79446C20.1003 2.84301 20.052 2.90887 20.0248 2.98416C19.9976 3.05946 19.9927 3.141 20.0106 3.21903C20.0285 3.29706 20.0685 3.36827 20.1258 3.42415L21.8813 5.1354L21.2604 7.82374C21.2416 7.90511 21.2476 7.99027 21.2778 8.06817C21.3079 8.14607 21.3608 8.21311 21.4295 8.26058C21.4982 8.30806 21.5796 8.33379 21.6632 8.33442C21.7467 8.33506 21.8285 8.31058 21.8979 8.26415L24.1667 6.75165L26.4354 8.26415C26.5064 8.31127 26.5901 8.33553 26.6753 8.33367C26.7604 8.3318 26.843 8.30389 26.9118 8.2537C26.9807 8.20352 27.0325 8.13345 27.0603 8.05293C27.0882 7.97241 27.0907 7.8853 27.0675 7.80332L26.3054 5.13665L28.1954 3.43582C28.3192 3.32415 28.3646 3.14999 28.3113 2.99207Z" fill="#EC2626"/>
<path d="M33.1666 0.167498C33.042 0.166581 32.9198 0.201016 32.814 0.266805C32.7083 0.332594 32.6233 0.427036 32.5691 0.539165L31.6433 2.41583L29.5716 2.71667C29.4484 2.73442 29.3326 2.78632 29.2373 2.8665C29.1421 2.94667 29.0712 3.05191 29.0327 3.1703C28.9942 3.28869 28.9896 3.4155 29.0194 3.53636C29.0493 3.65723 29.1124 3.76732 29.2016 3.85417L30.7016 5.315L30.3474 7.37833C30.3264 7.5009 30.34 7.62691 30.3868 7.74213C30.4336 7.85735 30.5117 7.95718 30.6122 8.03034C30.7128 8.10351 30.8318 8.14709 30.9558 8.15616C31.0799 8.16523 31.204 8.13943 31.3141 8.08167L33.1666 7.1075V0.167498Z" fill="#EC2626"/>
</svg>
