<svg width="49" height="9" viewBox="0 0 49 9" fill="none" xmlns="http://www.w3.org/2000/svg">
<path d="M8.31126 2.99207C8.28507 2.91493 8.23687 2.84715 8.17259 2.79709C8.10832 2.74704 8.0308 2.7169 7.94959 2.7104L5.57418 2.52165L4.54626 0.246236C4.51353 0.17295 4.46028 0.110704 4.39295 0.0670105C4.32562 0.0233172 4.24708 4.41162e-05 4.16681 6.26577e-08C4.08655 -4.39909e-05 4.00798 0.0231428 3.9406 0.0667622C3.87323 0.110382 3.81991 0.172569 3.78709 0.24582L2.75918 2.52165L0.383761 2.7104C0.303951 2.71673 0.227652 2.74591 0.163992 2.79446C0.100333 2.84301 0.052008 2.90887 0.0247998 2.98416C-0.00240849 3.05946 -0.00734831 3.141 0.0105713 3.21903C0.028491 3.29706 0.0685113 3.36827 0.125844 3.42415L1.88126 5.1354L1.26043 7.82374C1.24158 7.90511 1.24762 7.99027 1.27777 8.06817C1.30792 8.14607 1.36079 8.21311 1.42951 8.26058C1.49824 8.30806 1.57964 8.33379 1.66317 8.33442C1.7467 8.33506 1.82849 8.31058 1.89793 8.26415L4.16668 6.75165L6.43543 8.26415C6.5064 8.31127 6.5901 8.33553 6.67527 8.33367C6.76045 8.3318 6.843 8.30389 6.91184 8.2537C6.98068 8.20352 7.0325 8.13345 7.06033 8.05293C7.08816 7.97241 7.09067 7.8853 7.06751 7.80332L6.30543 5.13665L8.19543 3.43582C8.31918 3.32415 8.36459 3.14999 8.31126 2.99207Z" fill="#EC2626"/>
<path d="M18.3113 2.99207C18.2851 2.91493 18.2369 2.84715 18.1726 2.79709C18.1083 2.74704 18.0308 2.7169 17.9496 2.7104L15.5742 2.52165L14.5463 0.246236C14.5135 0.17295 14.4603 0.110704 14.3929 0.0670105C14.3256 0.0233172 14.2471 4.41162e-05 14.1668 6.26577e-08C14.0865 -4.39909e-05 14.008 0.0231428 13.9406 0.0667622C13.8732 0.110382 13.8199 0.172569 13.7871 0.24582L12.7592 2.52165L10.3838 2.7104C10.304 2.71673 10.2277 2.74591 10.164 2.79446C10.1003 2.84301 10.052 2.90887 10.0248 2.98416C9.99759 3.05946 9.99265 3.141 10.0106 3.21903C10.0285 3.29706 10.0685 3.36827 10.1258 3.42415L11.8813 5.1354L11.2604 7.82374C11.2416 7.90511 11.2476 7.99027 11.2778 8.06817C11.3079 8.14607 11.3608 8.21311 11.4295 8.26058C11.4982 8.30806 11.5796 8.33379 11.6632 8.33442C11.7467 8.33506 11.8285 8.31058 11.8979 8.26415L14.1667 6.75165L16.4354 8.26415C16.5064 8.31127 16.5901 8.33553 16.6753 8.33367C16.7604 8.3318 16.843 8.30389 16.9118 8.2537C16.9807 8.20352 17.0325 8.13345 17.0603 8.05293C17.0882 7.97241 17.0907 7.8853 17.0675 7.80332L16.3054 5.13665L18.1954 3.43582C18.3192 3.32415 18.3646 3.14999 18.3113 2.99207Z" fill="#EC2626"/>
<path d="M28.3113 2.99207C28.2851 2.91493 28.2369 2.84715 28.1726 2.79709C28.1083 2.74704 28.0308 2.7169 27.9496 2.7104L25.5742 2.52165L24.5463 0.246236C24.5135 0.17295 24.4603 0.110704 24.3929 0.0670105C24.3256 0.0233172 24.2471 4.41162e-05 24.1668 6.26577e-08C24.0865 -4.39909e-05 24.008 0.0231428 23.9406 0.0667622C23.8732 0.110382 23.8199 0.172569 23.7871 0.24582L22.7592 2.52165L20.3838 2.7104C20.304 2.71673 20.2277 2.74591 20.164 2.79446C20.1003 2.84301 20.052 2.90887 20.0248 2.98416C19.9976 3.05946 19.9927 3.141 20.0106 3.21903C20.0285 3.29706 20.0685 3.36827 20.1258 3.42415L21.8813 5.1354L21.2604 7.82374C21.2416 7.90511 21.2476 7.99027 21.2778 8.06817C21.3079 8.14607 21.3608 8.21311 21.4295 8.26058C21.4982 8.30806 21.5796 8.33379 21.6632 8.33442C21.7467 8.33506 21.8285 8.31058 21.8979 8.26415L24.1667 6.75165L26.4354 8.26415C26.5064 8.31127 26.5901 8.33553 26.6753 8.33367C26.7604 8.3318 26.843 8.30389 26.9118 8.2537C26.9807 8.20352 27.0325 8.13345 27.0603 8.05293C27.0882 7.97241 27.0907 7.8853 27.0675 7.80332L26.3054 5.13665L28.1954 3.43582C28.3192 3.32415 28.3646 3.14999 28.3113 2.99207Z" fill="#EC2626"/>
<path d="M38.3113 2.99207C38.2851 2.91493 38.2369 2.84715 38.1726 2.79709C38.1083 2.74704 38.0308 2.7169 37.9496 2.7104L35.5742 2.52165L34.5463 0.246236C34.5135 0.17295 34.4603 0.110704 34.3929 0.0670105C34.3256 0.0233172 34.2471 4.41162e-05 34.1668 6.26577e-08C34.0865 -4.39909e-05 34.008 0.0231428 33.9406 0.0667622C33.8732 0.110382 33.8199 0.172569 33.7871 0.24582L32.7592 2.52165L30.3838 2.7104C30.304 2.71673 30.2277 2.74591 30.164 2.79446C30.1003 2.84301 30.052 2.90887 30.0248 2.98416C29.9976 3.05946 29.9927 3.141 30.0106 3.21903C30.0285 3.29706 30.0685 3.36827 30.1258 3.42415L31.8813 5.1354L31.2604 7.82374C31.2416 7.90511 31.2476 7.99027 31.2778 8.06817C31.3079 8.14607 31.3608 8.21311 31.4295 8.26058C31.4982 8.30806 31.5796 8.33379 31.6632 8.33442C31.7467 8.33506 31.8285 8.31058 31.8979 8.26415L34.1667 6.75165L36.4354 8.26415C36.5064 8.31127 36.5901 8.33553 36.6753 8.33367C36.7604 8.3318 36.843 8.30389 36.9118 8.2537C36.9807 8.20352 37.0325 8.13345 37.0603 8.05293C37.0882 7.97241 37.0907 7.8853 37.0675 7.80332L36.3054 5.13665L38.1954 3.43582C38.3192 3.32415 38.3646 3.14999 38.3113 2.99207Z" fill="#EC2626"/>
<path d="M48.3113 2.99207C48.2851 2.91493 48.2369 2.84715 48.1726 2.79709C48.1083 2.74704 48.0308 2.7169 47.9496 2.7104L45.5742 2.52165L44.5463 0.246236C44.5135 0.17295 44.4603 0.110704 44.3929 0.0670105C44.3256 0.0233172 44.2471 4.41162e-05 44.1668 6.26577e-08C44.0865 -4.39909e-05 44.008 0.0231428 43.9406 0.0667622C43.8732 0.110382 43.8199 0.172569 43.7871 0.24582L42.7592 2.52165L40.3838 2.7104C40.304 2.71673 40.2277 2.74591 40.164 2.79446C40.1003 2.84301 40.052 2.90887 40.0248 2.98416C39.9976 3.05946 39.9927 3.141 40.0106 3.21903C40.0285 3.29706 40.0685 3.36827 40.1258 3.42415L41.8813 5.1354L41.2604 7.82374C41.2416 7.90511 41.2476 7.99027 41.2778 8.06817C41.3079 8.14607 41.3608 8.21311 41.4295 8.26058C41.4982 8.30806 41.5796 8.33379 41.6632 8.33442C41.7467 8.33506 41.8285 8.31058 41.8979 8.26415L44.1667 6.75165L46.4354 8.26415C46.5064 8.31127 46.5901 8.33553 46.6753 8.33367C46.7604 8.3318 46.843 8.30389 46.9118 8.2537C46.9807 8.20352 47.0325 8.13345 47.0603 8.05293C47.0882 7.97241 47.0907 7.8853 47.0675 7.80332L46.3054 5.13665L48.1954 3.43582C48.3192 3.32415 48.3646 3.14999 48.3113 2.99207Z" fill="#EC2626"/>
</svg>
