<svg width="20" height="5" viewBox="0 0 20 5" fill="none" xmlns="http://www.w3.org/2000/svg">
<path d="M4.72223 2.3305C4.77384 2.29204 4.81213 2.2384 4.83173 2.17708C4.85132 2.11577 4.85123 2.04986 4.83147 1.9886C4.81172 1.92733 4.77328 1.87379 4.72156 1.83548C4.66984 1.79716 4.60742 1.77599 4.54306 1.77494L3.29306 1.72772C3.28691 1.7273 3.28102 1.7251 3.27609 1.72141C3.27116 1.71771 3.26741 1.71267 3.26528 1.70689L2.83334 0.54022C2.81163 0.480865 2.77222 0.429611 2.72042 0.3934C2.66862 0.357189 2.60695 0.337769 2.54375 0.337769C2.48055 0.337769 2.41888 0.357189 2.36709 0.3934C2.31529 0.429611 2.27587 0.480865 2.25417 0.54022L1.82361 1.71105C1.82149 1.71683 1.81773 1.72188 1.8128 1.72557C1.80787 1.72927 1.80198 1.73146 1.79584 1.73189L0.545837 1.77911C0.481476 1.78016 0.419059 1.80133 0.367336 1.83964C0.315613 1.87796 0.277178 1.9315 0.257421 1.99276C0.237664 2.05403 0.237576 2.11993 0.257168 2.18125C0.27676 2.24256 0.31505 2.29621 0.36667 2.33466L1.34723 3.1055C1.35213 3.10936 1.3558 3.11458 1.35778 3.1205C1.35975 3.12642 1.35995 3.1328 1.35834 3.13883L1.02084 4.33466C1.00335 4.39556 1.00504 4.46036 1.02569 4.52026C1.04634 4.58016 1.08493 4.63224 1.13623 4.66942C1.18753 4.70661 1.24904 4.72709 1.31239 4.72807C1.37573 4.72906 1.43785 4.71051 1.49028 4.67494L2.52639 3.9805C2.5315 3.97697 2.53755 3.97509 2.54375 3.97509C2.54996 3.97509 2.55601 3.97697 2.56111 3.9805L3.59723 4.67494C3.64895 4.71172 3.71084 4.73149 3.77431 4.73149C3.83778 4.73149 3.89967 4.71172 3.95139 4.67494C4.0027 4.63811 4.04134 4.58628 4.06198 4.52659C4.08263 4.46689 4.08426 4.40227 4.06667 4.34161L3.72639 3.14161C3.72459 3.13558 3.72469 3.12915 3.72668 3.12319C3.72867 3.11722 3.73245 3.11201 3.7375 3.10828L4.72223 2.3305Z" fill="#EC2626"/>
<path d="M9.72223 2.3305C9.77384 2.29204 9.81213 2.2384 9.83173 2.17708C9.85132 2.11577 9.85123 2.04986 9.83147 1.9886C9.81172 1.92733 9.77328 1.87379 9.72156 1.83548C9.66984 1.79716 9.60742 1.77599 9.54306 1.77494L8.29306 1.72772C8.28691 1.7273 8.28102 1.7251 8.27609 1.72141C8.27116 1.71771 8.26741 1.71267 8.26528 1.70689L7.83334 0.54022C7.81163 0.480865 7.77222 0.429611 7.72042 0.3934C7.66862 0.357189 7.60695 0.337769 7.54375 0.337769C7.48055 0.337769 7.41888 0.357189 7.36709 0.3934C7.31529 0.429611 7.27587 0.480865 7.25417 0.54022L6.82361 1.71105C6.82149 1.71683 6.81773 1.72188 6.8128 1.72557C6.80787 1.72927 6.80198 1.73146 6.79584 1.73189L5.54584 1.77911C5.48148 1.78016 5.41906 1.80133 5.36734 1.83964C5.31561 1.87796 5.27718 1.9315 5.25742 1.99276C5.23766 2.05403 5.23758 2.11993 5.25717 2.18125C5.27676 2.24256 5.31505 2.29621 5.36667 2.33466L6.34723 3.1055C6.35213 3.10936 6.3558 3.11458 6.35778 3.1205C6.35975 3.12642 6.35995 3.1328 6.35834 3.13883L6.02084 4.33466C6.00335 4.39556 6.00504 4.46036 6.02569 4.52026C6.04634 4.58016 6.08493 4.63224 6.13623 4.66942C6.18753 4.70661 6.24904 4.72709 6.31239 4.72807C6.37573 4.72906 6.43785 4.71051 6.49028 4.67494L7.52639 3.9805C7.5315 3.97697 7.53755 3.97509 7.54375 3.97509C7.54996 3.97509 7.55601 3.97697 7.56111 3.9805L8.59723 4.67494C8.64895 4.71172 8.71084 4.73149 8.77431 4.73149C8.83778 4.73149 8.89967 4.71172 8.95139 4.67494C9.0027 4.63811 9.04134 4.58628 9.06198 4.52659C9.08263 4.46689 9.08426 4.40227 9.06667 4.34161L8.72639 3.14161C8.72459 3.13558 8.72469 3.12915 8.72668 3.12319C8.72867 3.11722 8.73245 3.11201 8.7375 3.10828L9.72223 2.3305Z" fill="#EC2626"/>
<path d="M14.7222 2.3305C14.7738 2.29204 14.8121 2.2384 14.8317 2.17708C14.8513 2.11577 14.8512 2.04986 14.8315 1.9886C14.8117 1.92733 14.7733 1.87379 14.7216 1.83548C14.6698 1.79716 14.6074 1.77599 14.5431 1.77494L13.2931 1.72772C13.2869 1.7273 13.281 1.7251 13.2761 1.72141C13.2712 1.71771 13.2674 1.71267 13.2653 1.70689L12.8333 0.54022C12.8116 0.480865 12.7722 0.429611 12.7204 0.3934C12.6686 0.357189 12.607 0.337769 12.5438 0.337769C12.4806 0.337769 12.4189 0.357189 12.3671 0.3934C12.3153 0.429611 12.2759 0.480865 12.2542 0.54022L11.8236 1.71105C11.8215 1.71683 11.8177 1.72188 11.8128 1.72557C11.8079 1.72927 11.802 1.73146 11.7958 1.73189L10.5458 1.77911C10.4815 1.78016 10.4191 1.80133 10.3673 1.83964C10.3156 1.87796 10.2772 1.9315 10.2574 1.99276C10.2377 2.05403 10.2376 2.11993 10.2572 2.18125C10.2768 2.24256 10.3151 2.29621 10.3667 2.33466L11.3472 3.1055C11.3521 3.10936 11.3558 3.11458 11.3578 3.1205C11.3598 3.12642 11.3599 3.1328 11.3583 3.13883L11.0208 4.33466C11.0033 4.39556 11.005 4.46036 11.0257 4.52026C11.0463 4.58016 11.0849 4.63224 11.1362 4.66942C11.1875 4.70661 11.249 4.72709 11.3124 4.72807C11.3757 4.72906 11.4378 4.71051 11.4903 4.67494L12.5264 3.9805C12.5315 3.97697 12.5376 3.97509 12.5438 3.97509C12.55 3.97509 12.556 3.97697 12.5611 3.9805L13.5972 4.67494C13.6489 4.71172 13.7108 4.73149 13.7743 4.73149C13.8378 4.73149 13.8997 4.71172 13.9514 4.67494C14.0027 4.63811 14.0413 4.58628 14.062 4.52659C14.0826 4.46689 14.0843 4.40227 14.0667 4.34161L13.7264 3.14161C13.7246 3.13558 13.7247 3.12915 13.7267 3.12319C13.7287 3.11722 13.7324 3.11201 13.7375 3.10828L14.7222 2.3305Z" fill="#EC2626"/>
<path d="M19.7222 2.3305C19.7738 2.29204 19.8121 2.2384 19.8317 2.17708C19.8513 2.11577 19.8512 2.04986 19.8315 1.9886C19.8117 1.92733 19.7733 1.87379 19.7216 1.83548C19.6698 1.79716 19.6074 1.77599 19.5431 1.77494L18.2931 1.72772C18.2869 1.7273 18.281 1.7251 18.2761 1.72141C18.2712 1.71771 18.2674 1.71267 18.2653 1.70689L17.8333 0.54022C17.8116 0.480865 17.7722 0.429611 17.7204 0.3934C17.6686 0.357189 17.607 0.337769 17.5438 0.337769C17.4806 0.337769 17.4189 0.357189 17.3671 0.3934C17.3153 0.429611 17.2759 0.480865 17.2542 0.54022L16.8236 1.71105C16.8215 1.71683 16.8177 1.72188 16.8128 1.72557C16.8079 1.72927 16.802 1.73146 16.7958 1.73189L15.5458 1.77911C15.4815 1.78016 15.4191 1.80133 15.3673 1.83964C15.3156 1.87796 15.2772 1.9315 15.2574 1.99276C15.2377 2.05403 15.2376 2.11993 15.2572 2.18125C15.2768 2.24256 15.3151 2.29621 15.3667 2.33466L16.3472 3.1055C16.3521 3.10936 16.3558 3.11458 16.3578 3.1205C16.3598 3.12642 16.3599 3.1328 16.3583 3.13883L16.0208 4.33466C16.0033 4.39556 16.005 4.46036 16.0257 4.52026C16.0463 4.58016 16.0849 4.63224 16.1362 4.66942C16.1875 4.70661 16.249 4.72709 16.3124 4.72807C16.3757 4.72906 16.4378 4.71051 16.4903 4.67494L17.5264 3.9805C17.5315 3.97697 17.5376 3.97509 17.5438 3.97509C17.55 3.97509 17.556 3.97697 17.5611 3.9805L18.5972 4.67494C18.6489 4.71172 18.7108 4.73149 18.7743 4.73149C18.8378 4.73149 18.8997 4.71172 18.9514 4.67494C19.0027 4.63811 19.0413 4.58628 19.062 4.52659C19.0826 4.46689 19.0843 4.40227 19.0667 4.34161L18.7264 3.14161C18.7246 3.13558 18.7247 3.12915 18.7267 3.12319C18.7287 3.11722 18.7324 3.11201 18.7375 3.10828L19.7222 2.3305Z" fill="#EC2626"/>
</svg>
