<svg width="23" height="23" viewBox="0 0 23 23" fill="none" xmlns="http://www.w3.org/2000/svg">
<path fill-rule="evenodd" clip-rule="evenodd" d="M11.5564 1.55635C6.0335 1.55635 1.55635 6.0335 1.55635 11.5563C1.55635 17.0792 6.0335 21.5563 11.5564 21.5563C17.0792 21.5563 21.5564 17.0792 21.5564 11.5563C21.5564 6.0335 17.0792 1.55635 11.5564 1.55635ZM0.55635 11.5563C0.556351 5.48122 5.48122 0.556349 11.5564 0.556349C17.6315 0.556349 22.5564 5.48122 22.5564 11.5563C22.5564 17.6315 17.6315 22.5563 11.5564 22.5563C5.48122 22.5563 0.556351 17.6315 0.55635 11.5563ZM9.19901 8.45209L14.698 13.9511L15.8558 7.30995L9.19901 8.45209ZM14.0189 14.6862L8.46373 9.13102L7.30993 15.8558L14.0189 14.6862ZM8.39235 7.57588C7.97467 7.64754 7.64751 7.97469 7.57585 8.39237L6.32433 15.6867C6.20742 16.3681 6.80062 16.9597 7.48167 16.8409L14.7589 15.5723C15.1744 15.4998 15.4998 15.1744 15.5723 14.7589L16.8409 7.4817C16.9597 6.80065 16.368 6.20745 15.6867 6.32435L8.39235 7.57588Z" fill="white" fill-opacity="0.5"/>
</svg>
