<svg width="14" height="14" viewBox="0 0 14 14" fill="none" xmlns="http://www.w3.org/2000/svg">
<path fill-rule="evenodd" clip-rule="evenodd" d="M7 0.636364C3.48546 0.636364 0.636364 3.48546 0.636364 7C0.636364 9.08195 1.63616 10.9304 3.18182 12.0914V10.5C3.18182 8.91846 4.46391 7.63636 6.04545 7.63636H7.95455C9.53609 7.63636 10.8182 8.91846 10.8182 10.5V12.0914C12.3638 10.9304 13.3636 9.08195 13.3636 7C13.3636 3.48546 10.5145 0.636364 7 0.636364ZM10.1818 12.5123V10.5C10.1818 9.26991 9.18463 8.27273 7.95455 8.27273H6.04545C4.81537 8.27273 3.81818 9.26991 3.81818 10.5V12.5123C4.75419 13.0537 5.8409 13.3636 7 13.3636C8.1591 13.3636 9.24581 13.0537 10.1818 12.5123ZM0 7C0 3.13401 3.13401 0 7 0C10.866 0 14 3.13401 14 7C14 10.866 10.866 14 7 14C3.13401 14 0 10.866 0 7ZM6.68182 2.54545C5.97891 2.54545 5.40909 3.11527 5.40909 3.81818V5.09091C5.40909 5.79382 5.97891 6.36364 6.68182 6.36364H7.31818C8.02109 6.36364 8.59091 5.79382 8.59091 5.09091V3.81818C8.59091 3.11527 8.02109 2.54545 7.31818 2.54545H6.68182ZM6.68182 1.90909C5.62746 1.90909 4.77273 2.76382 4.77273 3.81818V5.09091C4.77273 6.14527 5.62746 7 6.68182 7H7.31818C8.37254 7 9.22727 6.14527 9.22727 5.09091V3.81818C9.22727 2.76382 8.37254 1.90909 7.31818 1.90909H6.68182Z" fill="white" fill-opacity="0.5"/>
</svg>
